<svg width="16" height="15" viewBox="0 0 16 15" fill="none" xmlns="http://www.w3.org/2000/svg">
<path d="M14.7812 7.19324C14.7812 10.8486 11.7461 13.8313 7.97777 13.8313C4.20947 13.8313 1.17432 10.8486 1.17432 7.19324C1.17432 3.53787 4.20947 0.555176 7.97777 0.555176C11.7461 0.555176 14.7812 3.53787 14.7812 7.19324Z" stroke="white"/>
<path d="M8.18464 12.0499V7.92851H9.6365L9.85231 6.31486H8.18464V5.28704C8.18464 4.8214 8.32011 4.5026 9.01795 4.5026H9.90219V3.06395C9.47196 3.01979 9.0395 2.99847 8.60681 3.00009C7.3235 3.00009 6.44241 3.75034 6.44241 5.12764V6.31185H5V7.92549H6.44556V12.0499H8.18464Z" fill="white"/>
</svg>
